# xmcd
#
# Track frame offsets:
#	150
#	18815
#	41957
#	59995
#	78280
#	94501
#	109994
#	131978
#	150368
#	168258
#	187797
#	210206
#	228492
#	254734
#
# Disc length: 3725 seconds
#
# Revision: 2
# Processed by: cddbd v1.5.2PL0 Copyright (c) Steve Scherf et al.
# Submitted via: audiograbber 1.83.01
#
DISCID=b60e8b0e
DTITLE=RBL Posse - Bootlegs and Bay Shit: The Resume [CD1]
DYEAR=2000
DGENRE=Gangsta
TTITLE0=RBL Posse - Serve On (Remix)
TTITLE1=RBL Posse, Big Mack, Baldhead Rick, Da Base - Reality Check
TTITLE2=RBL Posse - Contact
TTITLE3=RBL Posse, Spice 1, Moot Ditty - Thug Thang 
TTITLE4=RBL Posse, Cellski - On the Grind
TTITLE5=RBL Posse - Miz Me
TTITLE6=RBL Posse, Richie Rich - More Game
TTITLE7=RBL Posse - Call It What You Want 
TTITLE8=RBL Posse, T-Lowe - Keep It Real
TTITLE9=RBL Posse, Que, Spice 1 - Ready Made Niggas 
TTITLE10=RBL Posse, Rappin' 4-Tay - All In Together 
TTITLE11=RBL Posse - Remember
TTITLE12=RBL Posse - I Got My Nine
TTITLE13=RBL Posse, Master P, Dre Dog, Cougnut, Madman - Ruthless by Law
EXTD=www.RapMusicGuide.com
EXTT0=
EXTT1=
EXTT2=
EXTT3=
EXTT4=
EXTT5=
EXTT6=
EXTT7=
EXTT8=
EXTT9=
EXTT10=
EXTT11=
EXTT12=
EXTT13=
PLAYORDER=
